<svg id="图层_3" data-name="图层 3" xmlns="http://www.w3.org/2000/svg" viewBox="0 0 343.53 343.53"><defs><style>.cls-1{fill:none;stroke:#fff;stroke-width:14px;}.cls-2{fill:#fff;}</style></defs><rect class="cls-1" x="64.34" y="64.34" width="214.85" height="214.85"/><line class="cls-1" x1="106.47" y1="64.34" x2="106.47"/><line class="cls-1" x1="171.77" y1="64.34" x2="171.77"/><line class="cls-1" x1="238.98" y1="64.34" x2="238.98"/><line class="cls-1" x1="105.51" y1="343.53" x2="105.51" y2="279.19"/><line class="cls-1" x1="170.81" y1="343.53" x2="170.81" y2="279.19"/><line class="cls-1" x1="238.02" y1="343.53" x2="238.02" y2="279.19"/><line class="cls-1" x1="279.19" y1="106.76" x2="343.53" y2="106.76"/><line class="cls-1" x1="279.19" y1="172.06" x2="343.53" y2="172.05"/><line class="cls-1" x1="279.19" y1="239.27" x2="343.53" y2="239.27"/><line class="cls-1" y1="106.76" x2="64.34" y2="106.76"/><line class="cls-1" y1="172.06" x2="64.34" y2="172.05"/><line class="cls-1" y1="239.27" x2="64.34" y2="239.27"/><rect class="cls-2" x="117.42" y="111.47" width="13.07" height="13.07"/><rect class="cls-2" x="164.27" y="165.52" width="13.07" height="13.07"/><rect class="cls-2" x="117.42" y="165.52" width="13.07" height="13.07"/><rect class="cls-2" x="117.42" y="219.57" width="13.07" height="13.07"/><rect class="cls-2" x="164.27" y="111.18" width="13.07" height="13.07"/><rect class="cls-2" x="164.27" y="219.28" width="13.07" height="13.07"/><rect class="cls-2" x="212.78" y="165.81" width="13.07" height="13.07"/><rect class="cls-2" x="212.78" y="111.47" width="13.07" height="13.07"/><rect class="cls-2" x="212.78" y="219.57" width="13.07" height="13.07"/></svg>